HIERARCHY
ROOT Hips
{
	OFFSET -0.001795 -0.223333 0.028219
	CHANNELS 6 Xposition Yposition Zposition Zrotation Yrotation Xrotation 
	JOINT LeftUpLeg
	{
		OFFSET 0.069520 -0.091406 -0.006815
		CHANNELS 3 Zrotation Yrotation Xrotation
		JOINT LeftLeg
		{
			OFFSET 0.034277 -0.375199 -0.004496
			CHANNELS 3 Zrotation Yrotation Xrotation
			JOINT LeftFoot
			{
				OFFSET -0.013596 -0.397961 -0.043693
				CHANNELS 3 Zrotation Yrotation Xrotation
				JOINT LeftToe
				{
					OFFSET 0.026358 -0.055791 0.119288
					CHANNELS 3 Zrotation Yrotation Xrotation
					End Site
					{
						OFFSET 0.000000 0.000000 0.000000
					}
				}
			}
		}
	}
	JOINT RightUpLeg
	{
		OFFSET -0.067670 -0.090522 -0.004320
		CHANNELS 3 Zrotation Yrotation Xrotation
		JOINT RightLeg
		{
			OFFSET -0.038290 -0.382569 -0.008850
			CHANNELS 3 Zrotation Yrotation Xrotation
			JOINT RightFoot
			{
				OFFSET 0.015774 -0.398415 -0.042312
				CHANNELS 3 Zrotation Yrotation Xrotation
				JOINT RightToe
				{
					OFFSET -0.025372 -0.048144 0.123348
					CHANNELS 3 Zrotation Yrotation Xrotation
					End Site
					{
						OFFSET 0.000000 0.000000 0.000000
					}
				}
			}
		}
	}
	JOINT Spine
	{
		OFFSET -0.002533 0.108963 -0.026696
		CHANNELS 3 Zrotation Yrotation Xrotation
		JOINT Spine1
		{
			OFFSET 0.005487 0.135180 0.001092
			CHANNELS 3 Zrotation Yrotation Xrotation
			JOINT Spine2
			{
				OFFSET 0.001457 0.052922 0.025425
				CHANNELS 3 Zrotation Yrotation Xrotation
				JOINT Neck
				{
					OFFSET -0.002778 0.213870 -0.042857
					CHANNELS 3 Zrotation Yrotation Xrotation
					JOINT Head
					{
						OFFSET 0.005152 0.064970 0.051349
						CHANNELS 3 Zrotation Yrotation Xrotation
						End Site
						{
							OFFSET 0.000000 0.000000 0.000000
						}
					}
				}
				JOINT LeftShoulder
				{
					OFFSET 0.078845 0.121749 -0.034090
					CHANNELS 3 Zrotation Yrotation Xrotation
					JOINT LeftArm
					{
						OFFSET 0.090977 0.030469 -0.008868
						CHANNELS 3 Zrotation Yrotation Xrotation
						JOINT LeftForeArm
						{
							OFFSET 0.259612 -0.012772 -0.027456
							CHANNELS 3 Zrotation Yrotation Xrotation
							JOINT LeftHand
							{
								OFFSET 0.249234 0.008986 -0.001171
								CHANNELS 3 Zrotation Yrotation Xrotation
								End Site
								{
									OFFSET 0.000000 0.000000 0.000000
								}
							}
						}
					}
				}
				JOINT RightShoulder
				{
					OFFSET -0.081759 0.118833 -0.038615
					CHANNELS 3 Zrotation Yrotation Xrotation
					JOINT RightArm
					{
						OFFSET -0.096012 0.032551 -0.009143
						CHANNELS 3 Zrotation Yrotation Xrotation
						JOINT RightForeArm
						{
							OFFSET -0.253742 -0.013329 -0.021401
							CHANNELS 3 Zrotation Yrotation Xrotation
							JOINT RightHand
							{
								OFFSET -0.255298 0.007772 -0.005559
								CHANNELS 3 Zrotation Yrotation Xrotation
								End Site
								{
									OFFSET 0.000000 0.000000 0.000000
								}
							}
						}
					}
				}
			}
		}
	}
}
MOTION
Frames: 10
Frame Time: 0.050000
0.000000 0.967634 0.000000 -0.445799 2.153637 0.026997 4.762846 0.078191 3.391148 -0.850617 0.107154 -0.648496 2.411325 9.137884 13.420523 0.000000 0.000000 0.000000 -2.268498 -0.011155 0.653386 1.630822 -0.105063 3.196369 -5.561091 -15.257028 13.050238 0.000000 0.000000 0.000000 -2.440178 0.001163 0.870336 5.379237 -0.912492 -20.554992 0.038244 -2.010462 28.358588 0.106890 1.436604 -26.942499 0.000000 0.000000 0.000000 11.653045 -22.454875 5.378584 4.846543 -44.380045 -4.491829 112.499308 -9.533714 -12.892295 0.000000 0.000000 0.000000 -24.432556 29.562060 3.883608 -4.217017 39.720347 -3.830177 -109.795987 10.443207 -11.758186 0.000000 0.000000 0.000000 
0.001194 0.965608 0.003297 -1.276088 1.596256 0.974947 6.046759 -0.004432 2.963129 -1.231485 0.172232 -1.794044 3.052264 9.735288 11.957163 0.000000 0.000000 0.000000 -1.280642 0.065699 -0.406971 1.216698 -0.017821 4.166973 -6.298065 -16.570716 12.114522 0.000000 0.000000 0.000000 -2.569595 0.042108 -0.820877 5.661458 -0.870480 -22.271769 1.321147 -2.413113 30.728384 -0.400451 1.661357 -28.375128 0.000000 0.000000 0.000000 14.357224 -22.160419 4.650567 5.093353 -45.629294 -4.620424 114.913963 -6.173795 -8.099131 0.000000 0.000000 0.000000 -30.049033 28.408308 2.392473 -4.130170 39.065105 -3.790209 -112.459082 5.006520 -5.071009 0.000000 0.000000 0.000000 
0.002596 0.964156 0.006212 -0.750750 1.650444 0.936316 5.753654 0.021665 3.265969 -1.552353 0.192732 -1.381339 3.596028 10.472238 11.354629 0.000000 0.000000 0.000000 -2.236662 0.078751 -0.360558 1.144807 -0.020394 3.703730 -4.783491 -13.766225 11.861904 0.000000 0.000000 0.000000 -2.253897 0.035169 -0.563837 5.485755 -0.756847 -23.194823 0.485380 -3.044857 31.897371 -0.450184 1.544110 -27.940156 0.000000 0.000000 0.000000 15.107160 -21.971415 4.330414 6.959315 -43.263015 -4.707493 116.504579 -4.902004 -6.523370 0.000000 0.000000 0.000000 -33.308908 27.202704 1.594539 -5.272300 39.641166 -4.262546 -112.855749 1.989063 -1.335003 0.000000 0.000000 0.000000 
0.003977 0.964398 0.008637 -0.928304 2.287505 1.355780 6.166802 -0.015189 3.310001 -1.819457 0.227163 -2.069851 3.761061 11.029276 12.515829 0.000000 0.000000 0.000000 -1.948397 0.125729 -0.979038 0.962428 0.015607 4.164892 -4.874603 -13.976108 12.884559 0.000000 0.000000 0.000000 -2.558513 0.058840 -1.687492 6.079960 -0.916016 -22.930240 0.051033 -4.607496 32.373059 -0.123514 1.154120 -28.121431 0.000000 0.000000 0.000000 16.409781 -22.172628 3.942799 7.050083 -42.231544 -4.348461 119.346807 -1.985981 -1.681642 0.000000 0.000000 0.000000 -35.472325 28.010432 1.325931 -8.374197 38.690223 -5.118188 -113.918671 -0.883919 1.807593 0.000000 0.000000 0.000000 
0.005469 0.964653 0.010674 -0.848654 2.408711 1.590589 6.166127 -0.035409 2.861497 -1.941603 0.226206 -1.427912 3.745194 10.969874 12.298931 0.000000 0.000000 0.000000 -2.084128 0.145002 -1.180615 0.780231 0.051087 4.472738 -4.217430 -12.698329 12.393837 0.000000 0.000000 0.000000 -2.559117 0.057710 -1.528382 6.142300 -0.948384 -22.656292 0.003296 -5.102130 31.725218 -0.478312 1.266951 -27.653137 0.000000 0.000000 0.000000 16.797919 -22.151884 3.846250 8.399350 -42.107977 -4.602218 120.764367 -2.300287 -2.115434 0.000000 0.000000 0.000000 -35.737244 28.066312 1.428243 -10.709020 39.066522 -5.903870 -113.983993 -0.739203 1.240173 0.000000 0.000000 0.000000 
0.007254 0.965115 0.012627 -1.127393 3.069579 2.018042 6.493871 -0.087037 2.330340 -1.943529 0.225229 -1.543538 3.533309 10.565073 11.696040 0.000000 0.000000 0.000000 -2.447062 0.176136 -1.516942 1.301003 -0.031396 4.489377 -4.195376 -12.585729 12.429706 0.000000 0.000000 0.000000 -2.651799 0.062917 -1.706400 6.329925 -0.970997 -22.817751 0.222167 -5.710002 31.312731 -0.520425 1.329244 -28.968254 0.000000 0.000000 0.000000 17.964449 -22.369733 3.627618 7.756646 -43.156643 -4.514977 122.932868 -2.562030 -2.256213 0.000000 0.000000 0.000000 -36.708036 27.966259 1.302186 -11.087492 38.943103 -6.010227 -114.040187 -1.032133 1.567687 0.000000 0.000000 0.000000 
0.009286 0.965641 0.014764 -1.141692 3.804246 2.377150 6.709992 -0.129353 1.862841 -1.865752 0.212901 -1.407653 3.422499 10.465400 11.738841 0.000000 0.000000 0.000000 -2.371905 0.194586 -1.758758 0.838844 0.025669 4.160686 -3.960842 -11.977956 11.806899 0.000000 0.000000 0.000000 -2.412820 0.065222 -1.730404 6.282607 -0.923853 -23.116022 0.161679 -6.319890 30.808336 -0.473845 1.276600 -28.886368 0.000000 0.000000 0.000000 18.176579 -22.377700 3.592718 7.895555 -43.833708 -4.613310 124.282785 -2.729747 -2.441396 0.000000 0.000000 0.000000 -36.994896 28.379636 1.307484 -11.869373 39.244492 -6.313835 -114.682010 -1.438573 2.185118 0.000000 0.000000 0.000000 
0.011561 0.965892 0.017153 -1.251482 4.477842 2.602480 6.947395 -0.167280 1.458271 -1.958053 0.219645 -1.514514 3.333262 10.403120 11.817510 0.000000 0.000000 0.000000 -2.667891 0.195962 -1.776536 1.258109 -0.047664 3.905851 -4.095182 -12.127216 11.587690 0.000000 0.000000 0.000000 -2.285214 0.069844 -1.952977 6.255707 -0.872833 -23.571717 0.204613 -6.477095 30.754462 -0.810575 1.521865 -29.170627 0.000000 0.000000 0.000000 18.570761 -22.641161 3.586061 8.160821 -44.449190 -4.813280 124.583478 -2.171276 -1.602009 0.000000 0.000000 0.000000 -37.163456 28.601474 1.203552 -11.711823 38.973488 -6.138607 -114.822703 -1.084855 1.891557 0.000000 0.000000 0.000000 
0.013958 0.965953 0.019624 -1.184812 4.864919 2.751799 6.902043 -0.180770 1.207738 -2.049368 0.225406 -1.507326 3.242628 10.303332 11.845835 0.000000 0.000000 0.000000 -2.714608 0.175891 -1.529374 1.056596 -0.027912 3.567473 -4.065177 -12.005141 11.409657 0.000000 0.000000 0.000000 -2.135430 0.077907 -2.367926 5.940695 -0.775379 -23.709370 0.421939 -6.615714 30.616169 -1.008237 1.660410 -29.458951 0.000000 0.000000 0.000000 18.640947 -22.649107 3.591451 8.934652 -45.020667 -5.150422 123.422241 -1.189304 0.010271 0.000000 0.000000 0.000000 -37.356417 29.424032 1.111976 -11.733028 39.210530 -6.159732 -113.355931 -0.873138 1.631341 0.000000 0.000000 0.000000 
0.016471 0.965911 0.021898 -1.032652 5.195084 3.046169 6.529179 -0.184535 0.824213 -1.901225 0.208159 -1.316239 3.120633 10.093399 11.642701 0.000000 0.000000 0.000000 -2.816542 0.165280 -1.382026 0.809485 -0.000648 3.280303 -3.969163 -11.774249 11.322278 0.000000 0.000000 0.000000 -2.205632 0.088114 -2.937186 5.857373 -0.729057 -24.000513 0.520993 -6.682441 30.530477 -1.364041 1.896305 -29.819719 0.000000 0.000000 0.000000 19.148236 -22.497986 3.487943 8.978991 -44.908196 -5.153216 121.933598 -0.351685 1.320631 0.000000 0.000000 0.000000 -38.185447 29.846555 0.881776 -10.776775 38.824869 -5.766300 -111.265917 -0.834873 1.612498 0.000000 0.000000 0.000000 
